<svg width="67" height="39" viewBox="0 0 67 39" fill="none" xmlns="http://www.w3.org/2000/svg">
<path fill-rule="evenodd" clip-rule="evenodd" d="M29.848 10.9489C29.6065 12.37 30.5322 13.4455 31.9007 13.4071C32.6252 13.4071 33.2692 13.0998 33.9132 12.8694C34.1547 13.5991 34.4767 14.0601 35.0804 14.4058C35.6439 14.7514 36.2074 14.9051 36.9319 14.9435C38.9041 15.0587 40.3933 14.0601 41.6008 13.3687C41.7216 13.2919 41.8021 13.215 41.8423 13.0998C41.8826 12.9846 42.285 12.7925 42.3655 12.7157C42.446 12.6773 42.446 12.5621 42.4863 12.4853C42.5265 12.4084 43.0095 12.0627 43.412 11.9091C43.4925 11.8707 43.573 11.4098 43.3315 11.2945C43.09 11.1793 42.7278 11.4866 42.446 11.6402C42.124 11.8323 41.8021 11.9475 41.5606 12.0627C40.9971 12.3316 40.4336 12.6773 39.7493 12.8694C38.0589 13.3303 36.5696 12.7157 36.1269 11.525C36.6099 11.1025 37.0526 10.68 37.4954 10.2575C38.5419 9.29722 40.3933 6.72375 40.0311 6.22442C39.7896 5.95555 39.3066 6.1476 39.1053 6.22442C39.0248 6.26283 38.8639 6.22442 38.7834 6.26283C38.3406 6.41647 37.8576 6.80057 37.4149 7.03103C36.9319 7.2999 36.4891 7.53036 36.0866 7.87605C34.9999 8.79789 34.1949 10.1422 33.8327 11.4866C32.7862 11.7171 32.102 10.7184 32.263 9.71973C33.6717 8.64425 34.8389 7.37672 36.0866 6.07078C36.8514 5.26417 37.4149 4.38074 37.9784 3.49731C38.0991 3.30526 38.0991 3.19003 38.1796 2.95957C38.2601 2.72911 38.4614 2.46024 38.5419 2.11455C38.7431 1.57681 38.9846 0.654971 38.5821 0.270871C38.3406 0.0788208 37.0526 0.539741 36.4891 0.885431C35.9257 1.23112 35.4024 1.46158 34.9194 1.73045C34.6377 1.9225 34.3559 2.26819 34.0742 2.53706C33.7924 2.80593 33.5912 3.19003 33.3497 3.49731C32.3837 4.84166 31.6995 6.1476 30.9347 7.64559C30.6932 8.14492 30.4115 8.8363 30.2103 9.41245C30.1298 9.64291 30.1298 9.68132 30.009 9.79655C29.848 10.027 29.1235 10.4495 28.8418 10.5648C28.7613 10.6032 27.7148 10.9489 27.9563 11.5634C28.1978 11.7939 29.2443 11.1409 29.848 10.9489ZM37.9784 7.53036C38.0186 7.53036 38.0589 7.53036 38.0589 7.56877C38.1796 7.83764 37.9381 8.18333 37.7771 8.41379C37.3344 9.02835 36.7709 9.87337 36.2074 10.1422C36.4086 9.02835 37.1734 8.18333 37.9784 7.53036ZM36.2074 1.99932C36.2476 1.9225 36.3281 1.88409 36.5294 1.9225C36.6904 1.96091 36.2074 3.26685 35.9257 3.843C35.2012 5.22576 34.0339 6.33965 33.0679 7.41513C33.8327 5.60986 34.9597 3.53572 36.2074 1.99932Z" fill="#E1635A"/>
<path fill-rule="evenodd" clip-rule="evenodd" d="M65.3076 20.7434C64.7441 20.6666 63.8586 20.3977 63.3354 20.3593C63.0939 20.3209 61.7657 20.1288 61.0009 20.2825C60.7997 20.3209 60.5985 20.3209 60.3972 20.2825C61.4437 20.0136 62.6109 19.8984 63.8184 20.2057C63.7781 20.2057 64.2611 20.2441 64.7039 20.2825C64.6636 20.2825 64.7441 20.2825 64.7441 20.2825C65.2674 20.3977 65.5894 20.3209 66.0724 20.2441C65.7101 19.9752 64.9051 20.1288 64.7441 19.6679C64.9454 19.4759 65.4284 19.6679 65.7101 19.6679C65.5894 19.5143 65.3479 19.5143 65.2271 19.399C65.3479 19.3606 65.4686 19.4759 65.5491 19.399C65.3881 19.3222 65.5089 19.2838 65.6296 19.2454C65.3076 19.1686 64.8246 19.1686 64.8649 18.8229C65.1869 18.8613 65.7906 18.9381 65.8309 18.9381C65.8711 18.8997 65.6296 18.8229 65.6296 18.7461C65.1869 18.6693 64.5831 18.4388 64.1404 18.2467C64.1806 18.1315 64.0599 18.0547 63.8989 18.0163C64.5831 18.0931 65.1869 18.2467 65.8309 18.2852C65.7101 18.2467 65.8711 18.2083 65.8711 18.2083C65.8309 18.2083 65.7504 18.1699 65.7101 18.1699C65.7504 18.1699 65.7504 18.1699 65.7906 18.1699C65.7906 18.1699 65.7101 18.1699 65.6296 18.1315C65.5894 18.1315 65.5491 18.0931 65.5089 18.0931C65.2271 18.0163 64.7441 17.8626 64.4624 17.6706C64.9856 17.709 65.4686 17.7474 65.9516 17.7858C64.9051 17.3633 62.7719 17.4017 61.6449 17.8242C60.9205 18.1315 59.6325 18.4772 58.8275 18.8997C58.9885 18.4772 59.2702 17.9011 59.1897 17.4401C59.1092 17.5554 59.1092 17.7858 58.9885 17.8242C58.9482 17.7858 59.069 17.5938 58.908 17.709C58.9885 17.3633 59.2702 17.0176 59.23 16.7103C59.069 16.6335 59.069 16.4799 58.8275 16.4415C58.7872 16.4415 58.7872 16.4799 58.7067 16.5183C58.747 16.4415 58.8677 16.4031 58.7872 16.3262C58.5055 16.2878 58.3445 16.1726 58.0225 16.2494C58.0628 16.4031 58.1433 16.5183 58.0225 16.6335C57.5395 16.6335 57.459 16.211 57.2578 16.019C57.0163 15.9806 57.0163 16.1726 56.8553 16.211C56.815 16.2494 56.8553 16.5567 56.7748 16.7488C56.6138 17.1713 56.4528 17.709 56.2113 18.1315C56.0503 18.4004 55.849 18.8229 55.688 19.0534C55.3258 19.5911 55.2051 20.2057 54.8428 20.6666C54.8831 20.8586 54.6818 20.897 54.6013 21.0507C54.5611 21.1275 54.5611 21.2811 54.4806 21.3964C54.3196 21.7036 54.0378 22.0109 53.8366 22.3566C53.1926 23.2785 52.5084 24.2387 51.9046 25.0837C51.5021 25.6599 51.0996 26.1976 50.6971 26.7354C50.5361 26.9658 50.3349 27.1195 50.2544 27.3499C50.2141 27.4651 50.2946 27.6188 50.2544 27.6956C50.2141 27.8877 50.0129 28.0413 50.0531 28.2718C50.1336 28.3102 50.2946 28.3102 50.3751 28.387C50.2544 28.7327 49.9324 28.8863 50.0129 29.2704C50.2141 29.3472 50.3751 29.1936 50.4959 29.3088C50.6569 29.1552 50.8179 28.9247 50.9789 28.7327C51.1399 28.579 51.3411 28.2718 51.5826 28.387C51.4619 28.7327 51.0594 28.8863 51.2204 29.2704C51.4216 29.3856 51.5424 29.1936 51.7034 29.3088C52.2266 28.7711 52.6291 28.1565 53.2328 27.734C53.8366 27.0042 54.4001 26.236 54.8831 25.4294C55.2453 25.0453 55.5673 24.6612 55.8893 24.2771C56.2113 23.893 56.4528 23.4321 56.7748 23.0096C56.9358 22.8175 57.2578 22.7023 57.4993 22.5487C58.2237 22.0109 58.7872 21.55 59.6727 21.2043C60.5985 20.8586 61.5644 20.5898 62.5304 20.5898C63.0939 20.6666 63.7379 20.6282 64.1806 20.8586C64.1806 20.8586 64.2209 20.897 64.2611 20.897C65.0661 20.9739 65.5894 21.0891 66.2736 20.9354C66.1529 20.7818 65.8309 20.8202 65.5894 20.7818C65.3076 20.7818 65.3881 20.7434 65.3076 20.7434ZM52.3071 25.9287C52.2266 25.2758 52.7096 24.8533 52.9913 24.4308C53.0316 24.4308 53.5548 23.7394 53.8366 23.6241C53.3133 24.3539 52.7498 25.1221 52.3071 25.9287ZM55.6478 21.1659C55.3258 21.7036 54.9635 22.203 54.4806 22.6639C54.4403 22.3182 54.9233 21.9341 55.0843 21.55C55.7685 21.0123 56.0503 20.0904 56.5333 19.3606C56.5735 19.3222 56.493 19.0918 56.493 19.0534C56.6943 18.7845 56.8553 18.4004 57.0565 18.1315C57.0968 18.1315 57.0968 18.1315 57.137 18.1699C57.137 18.362 57.0968 18.5924 57.0565 18.6308C57.0163 18.6693 57.0565 19.1686 56.9358 19.399C56.654 20.052 56.0503 20.705 55.6478 21.1659Z" fill="#E1635A"/>
<path fill-rule="evenodd" clip-rule="evenodd" d="M51.0996 19.4759C51.5424 18.4388 52.2266 17.6706 52.7096 16.7103C52.8303 16.7103 52.8706 16.6335 52.9511 16.5951C52.6291 16.1726 52.3071 16.3262 51.7839 16.4415C51.6229 16.6719 51.4216 16.864 51.2606 17.0944C51.3814 16.864 51.5021 16.6335 51.6229 16.4031C51.3814 16.3647 51.3814 16.5567 51.2204 16.5183C51.0594 16.7872 50.7776 16.9792 50.6569 17.3249C50.1336 17.6322 49.8519 18.5924 49.3689 18.9765C49.6104 18.5924 49.8921 18.1699 50.1336 17.7474C50.4556 17.2481 50.8984 16.7103 50.9789 16.1342C50.8179 16.0958 50.7776 15.9037 50.6166 15.8269C49.9726 15.8653 49.8921 16.4415 49.4896 16.7488C49.0469 17.056 48.8457 17.5938 48.4834 17.9011C48.4432 17.9779 48.4432 17.9395 48.4834 18.0547C48.0407 18.6308 47.7187 19.2838 47.1149 19.7063C46.9137 20.2057 46.4307 20.4361 46.149 20.8586C45.7062 21.1659 45.505 21.6652 45.183 22.0877C45.022 22.3182 44.9415 22.4718 44.8207 22.7023C44.7 22.8944 44.4585 23.0096 44.4585 23.2785C43.9755 23.7394 43.5328 24.2771 43.0095 24.7764C42.7278 25.0069 42.4863 25.2758 42.2045 25.4678C41.7215 25.7751 41.1983 26.1976 40.7153 26.4665C39.9103 26.8506 38.8236 26.7354 38.5821 25.9288C38.5016 25.6215 38.5821 25.2758 38.6224 24.9685C38.7833 23.6241 39.6286 22.5871 40.4336 21.8573C40.7958 21.3195 41.2788 20.897 41.6813 20.3593C42.124 19.7447 42.5668 19.0149 43.0095 18.4772C42.9693 18.4772 42.9693 18.4388 42.9693 18.4004C43.3315 17.9779 43.6535 17.5554 43.9755 17.0944C43.895 16.9408 44.0157 16.8256 44.056 16.7103C43.7743 16.6719 43.6938 16.9792 43.5328 17.1713C43.2913 17.4401 43.0095 17.6706 42.768 17.8242C42.929 17.5938 43.1303 17.4017 43.251 17.2097C43.1705 17.2097 43.2108 17.056 43.1303 17.056C42.6473 17.4017 42.1643 17.9395 41.7618 18.2852C42.1643 17.709 42.607 17.1713 43.2108 16.7488C43.1303 16.7103 43.1705 16.7103 43.1705 16.6335C43.2108 16.5567 43.2913 16.5567 43.2913 16.4415C43.0498 16.4415 43.0095 16.6719 42.8083 16.7488C42.8485 16.6335 42.768 16.6335 42.7278 16.5567C42.4863 16.5183 42.3655 16.7872 42.1643 16.6335C42.124 16.6719 42.0838 16.7488 42.0033 16.7872C41.963 16.7488 41.963 16.6719 41.8825 16.7103C41.7618 16.864 41.0776 16.9792 40.9971 17.056C40.7958 17.1713 40.7958 17.4401 40.7556 17.517C40.7556 17.517 40.7153 17.6322 40.7153 17.7474C40.5946 17.7858 40.6348 17.8626 40.5141 17.8242C40.1518 18.362 39.4273 18.7461 39.1858 19.3606C39.1858 19.399 39.1858 19.399 39.1053 19.4759C39.0651 19.5143 38.5419 20.3593 38.3809 20.705C38.3809 20.7434 38.2601 20.9354 38.1796 21.0507C38.1796 21.0123 38.1796 20.9739 38.1394 20.9739C37.8979 21.358 37.6161 21.7421 37.3746 22.0877C37.3344 22.1262 37.2539 22.203 37.2539 22.203C37.2539 22.2414 36.6501 22.9712 36.4489 23.3553C36.4086 23.4321 36.0866 23.9314 35.8452 24.3155C35.8452 24.3539 35.7647 24.546 35.5634 24.8533C35.4427 24.9685 34.9999 25.4294 34.8792 25.6983C34.8389 25.7367 34.5974 26.0824 34.5572 26.1976C34.5572 26.236 34.1949 26.8506 34.1144 26.9274C33.8729 27.081 33.7522 27.2731 33.5912 27.4267C33.5509 28.0029 32.7057 28.3102 33.2692 28.8479C33.9132 28.387 34.3962 27.734 35.0402 27.2731C35.0804 27.2347 35.2012 27.1195 35.2414 27.081C35.5634 27.6188 35.9257 28.1181 36.4489 28.4638C36.8111 28.387 37.0124 28.7327 37.2539 28.9247C37.3746 29.0015 37.5759 29.04 37.7369 29.1168C38.1796 29.3472 38.5016 29.5777 39.0248 29.6929C39.7091 29.8082 40.1921 29.8466 40.7556 29.6161C42.1643 29.1168 43.6535 28.2333 44.539 27.4267C44.7 27.734 44.9817 27.9645 45.3037 28.1181C45.3842 28.1565 45.4647 28.1949 45.5452 28.2333C45.9477 28.4638 46.6319 28.6559 47.2759 28.579C47.2759 28.4638 47.3564 28.3486 47.3967 28.3486C47.4772 28.3102 46.9942 28.0413 47.1149 28.0797C47.1149 28.0797 47.2759 28.1565 47.3162 28.1181C47.3162 28.0797 47.1552 27.9261 47.1954 27.9261C47.3564 27.9645 47.6382 28.1565 47.6784 28.1565C47.8394 28.1949 47.9602 28.1949 48.0407 28.1565C48.4432 28.2718 48.7249 28.0029 49.0067 27.8108C48.6847 27.6956 48.4834 27.734 48.1212 27.5804C47.9602 27.5036 47.4772 27.2731 47.4772 27.1963C46.7527 27.0042 46.2697 26.3897 46.4307 25.4294C47.2357 24.4308 48.1614 23.5473 48.9262 22.5487C49.3286 22.2414 49.5701 21.7805 49.8116 21.3195C50.4556 20.897 50.5361 19.9752 51.0996 19.4759ZM36.2074 26.044C36.0464 25.6215 36.4489 25.0069 36.8111 24.738C36.6099 25.0837 36.4891 25.7367 36.6904 26.1208C36.8514 26.4665 37.2539 26.8506 37.5759 27.0426C37.0929 26.9274 36.3684 26.5049 36.2074 26.044ZM38.8236 21.8189C38.9041 21.6652 38.9846 21.55 39.0651 21.3964C39.2261 21.1275 39.3066 20.7818 39.4676 20.5129C39.7091 20.1288 39.9908 19.6295 40.2726 19.399C40.5141 19.207 40.8361 19.1686 41.0373 18.9381C41.0775 18.9381 41.0775 18.9381 41.1178 18.9765C40.997 19.2454 40.7556 19.399 40.6348 19.7063C40.5141 19.7063 40.5141 19.86 40.3128 19.8216C39.5481 20.6666 39.1053 21.6652 38.4613 22.5871C38.4211 22.2798 38.7028 22.0878 38.8236 21.8189ZM44.4987 25.0453C45.7867 23.9314 46.9539 22.7023 48.0004 21.3964C48.0809 21.358 48.0809 21.4348 48.1212 21.5116C47.3564 22.3566 46.8332 23.3937 45.8672 24.0467C45.4647 24.4308 45.2635 24.9685 44.4987 25.0453ZM46.149 24.2771C46.0685 24.3155 45.9075 24.1619 45.9477 24.1235C46.954 23.2401 47.8394 22.2414 48.6444 21.1659C48.7249 21.1275 48.7249 21.2043 48.7249 21.2427C48.1614 21.9341 46.5515 24.1619 46.149 24.2771Z" fill="#E1635A"/>
<path fill-rule="evenodd" clip-rule="evenodd" d="M35.0804 21.0891C35.1206 20.3977 34.9999 19.9368 34.8389 19.3606C34.4364 17.8242 33.4704 16.9408 32.102 16.2878C31.6995 16.019 31.3775 15.9037 31.2567 15.8653C31.0152 15.7501 30.6127 15.6349 30.2907 15.5965C29.9687 15.5581 29.687 15.7501 29.3248 15.7117C28.9223 15.6733 28.6003 15.3276 28.0368 15.5196C26.5073 16.019 25.2998 16.864 24.2533 17.8242C24.2131 17.8627 24.2533 17.9779 24.1729 18.0163C23.8911 18.3236 23.4081 18.5156 23.1264 18.8613C23.0459 18.9765 23.0459 19.0918 22.9654 19.207C22.8849 19.3222 22.7239 19.3991 22.6434 19.5527C22.4421 19.86 22.2811 20.2057 22.0396 20.5129C21.5969 21.0123 21.2749 21.5884 20.9529 22.1646C20.7517 22.5103 20.5907 22.8944 20.4699 23.2785C20.2687 23.4705 19.9869 23.7778 19.8662 24.0851C19.7454 24.3924 19.7857 25.1221 19.7857 25.3526C19.7857 25.5062 19.7052 25.6599 19.7052 25.7751C19.7052 25.8519 19.7454 25.9672 19.7857 26.0824C19.7857 26.3129 19.7052 26.5049 19.7454 26.6585C19.8662 27.1963 20.1479 27.6188 20.3089 28.0413C20.4297 28.0413 20.3089 27.7724 20.4297 27.7724C20.5907 28.1949 20.8322 28.5406 21.1944 28.7711C21.4359 28.9247 21.7579 29.0016 21.9994 29.1552C22.1201 29.232 22.1604 29.3472 22.2409 29.4241C22.3616 29.5009 22.5226 29.5009 22.6836 29.6161C22.8446 29.7313 22.9251 29.885 23.0861 29.9618C23.2471 30.0386 23.9716 30.2307 24.6961 30.1539C25.3401 30.1154 25.9438 29.7698 26.5476 29.8082C26.4671 29.8082 26.2658 30.1154 26.3463 30.1154C27.4733 29.7313 28.6003 29.3472 29.5662 28.8095C29.365 29.0016 28.9625 29.0784 28.8418 29.3472C30.2102 28.8095 31.4177 27.5804 32.4642 26.3129C32.9472 25.7367 33.4302 25.0837 33.8729 24.4692C34.4364 23.5857 34.9596 22.4334 35.0804 21.0891ZM22.2409 21.4732C22.2811 21.6268 21.6774 22.5103 21.6371 22.6639C21.5566 22.4719 21.9994 21.5116 22.2409 21.4732ZM24.7363 29.3088C24.9778 29.0016 25.5011 29.2704 25.8633 29.232C25.6218 29.5009 25.0986 29.4625 24.7363 29.3088ZM25.5413 28.9631C26.3463 28.6943 27.0306 28.3486 27.8355 28.0797C27.6745 28.387 27.2721 28.5022 26.7891 28.7327C26.3463 28.9247 26.0646 29.1936 25.5413 28.9631ZM26.9098 29.0016C27.6745 28.579 28.3185 28.0797 29.1638 27.734C29.1638 27.6956 29.204 27.6956 29.2443 27.6956C28.6808 28.3486 27.7148 28.6175 26.9098 29.0016ZM29.8883 25.0837C29.1638 26.3129 27.916 27.0426 26.3866 27.5036C24.9778 27.8493 23.4081 27.3115 22.5629 26.6585L22.5226 26.6201C22.1604 26.1592 21.5969 26.044 21.6774 25.1606C21.7177 24.6612 21.9994 24.1619 22.2006 23.6626C22.3214 23.4321 22.3616 23.2016 22.4824 23.0096C22.6836 22.6255 22.9251 22.1646 23.2471 21.8573C23.8106 20.5514 24.5351 19.3606 25.5413 18.4388C25.6218 18.4004 25.6218 18.362 25.7426 18.2852C25.9438 18.1315 26.0646 18.0163 26.3061 17.8627C26.9098 17.4401 27.6745 17.2097 28.4393 17.0176C28.9223 16.9792 29.526 17.1329 30.0493 17.1713C30.5725 17.1713 31.0152 17.4786 31.2165 17.6322C31.5787 18.1315 32.102 18.5156 32.1825 19.2838C32.1825 19.4375 32.3032 19.5911 32.3435 19.7447C32.3837 20.0136 32.3032 20.3593 32.263 20.5898C32.263 20.6666 32.2227 20.8586 32.1825 20.9739C32.0215 21.358 31.7397 22.0109 31.5787 22.2798C31.458 22.4334 31.297 22.7407 31.2165 22.9328C31.136 23.1632 31.0555 23.3937 30.975 23.5473C30.8945 23.701 30.6932 23.9314 30.653 23.9698C30.4517 24.1619 30.2907 24.5076 30.2102 24.6228C30.2102 24.6612 30.1298 24.8149 30.0895 24.8533C30.009 24.8917 29.9688 25.0069 29.8883 25.0837ZM31.6592 24.7765C31.136 25.5447 30.6127 26.3129 30.0895 27.0426C30.2908 26.2744 30.7737 25.2374 31.6592 24.7765ZM33.1484 23.2016C32.6655 24.1619 31.6592 25.6599 30.8542 26.5433C31.5787 25.4294 32.424 23.9314 32.4642 23.5857C32.5447 23.4321 32.746 23.0864 32.7862 22.9712C32.8667 22.6255 33.1082 22.4334 33.2289 22.1262C33.2289 22.4719 33.2692 22.8944 33.1484 23.2016Z" fill="#E1635A"/>
<path fill-rule="evenodd" clip-rule="evenodd" d="M22.4019 15.8269C22.4019 15.6733 22.4421 15.5965 22.4824 15.4812C22.4421 15.4044 22.2811 15.366 22.3214 15.2124C22.0799 15.2508 21.8786 15.4812 21.7176 15.5581C21.6774 15.5965 21.6371 15.5965 21.6371 15.6349C21.5969 15.6733 21.5164 15.6733 21.4762 15.7117C21.1944 16.019 21.0334 16.4031 20.7919 16.7872C20.3894 17.3633 20.0674 17.9011 19.7454 18.5156C19.5844 18.7845 19.5039 19.1302 19.2222 19.3222C19.1819 19.0534 19.3429 18.9381 19.4234 18.7461C19.7052 18.1699 19.9869 17.517 20.3492 16.9408C20.7919 16.211 21.3554 15.4812 21.7176 14.8667C21.7579 14.7514 21.6371 14.6746 21.6371 14.521C21.8786 14.1753 21.4762 13.868 21.3554 13.6376C21.2347 13.676 21.1542 13.868 21.0334 13.8296C21.1542 13.7912 21.2347 13.6376 21.1542 13.4839C21.1139 13.5991 21.0334 13.4839 21.0737 13.4839C20.9127 13.4455 20.8322 13.7144 20.6712 13.8296C20.5907 13.868 20.5504 13.7912 20.4699 13.7912C20.0272 14.0985 19.8259 14.521 19.5039 14.9819C19.3027 15.2892 19.1014 15.5581 18.9002 15.8269C18.699 16.0958 18.5782 16.4799 18.4172 16.7872C18.216 17.0945 18.0147 17.4017 17.894 17.709C17.6525 18.362 17.6122 19.0534 17.25 19.6679C17.25 19.7063 17.1292 20.0904 16.9682 20.2441C17.089 19.7832 17.3305 19.1302 17.5317 18.4772C17.3305 18.5924 17.3305 18.7845 17.25 18.9381C16.9682 19.6295 16.606 20.3209 16.3242 21.0123C16.0827 21.5884 15.7608 22.2798 15.4388 22.7791C15.1168 23.6242 14.513 24.1619 14.2715 25.0453C14.352 25.0837 14.4728 24.7765 14.6338 24.6612C14.674 24.738 14.5935 24.9301 14.5533 25.0069C14.4325 25.199 14.191 25.6215 14.03 25.9672C13.9495 26.1208 13.8288 26.236 13.7885 26.3897C13.6678 26.6585 13.6678 26.9274 13.5873 27.1579C13.5068 27.3883 13.3458 27.5804 13.1848 27.7724C12.8628 28.1949 12.7018 28.6559 12.3798 29.04C12.1786 29.2704 12.0578 29.5393 12.0176 29.6161C11.9371 29.8466 11.7358 30.1154 11.6956 30.1923C11.6553 30.2307 11.2528 30.9605 10.8101 31.1141C10.7698 31.1525 10.7296 31.1909 10.6491 31.2293C10.1259 31.9975 9.80386 32.6889 8.99888 33.1114C8.83788 33.1882 8.79763 33.2651 8.71713 33.3035C8.35489 33.7644 7.9524 34.0717 7.26816 34.2253C7.6304 34.0717 8.07314 33.6876 8.23414 33.4955C8.15364 33.4955 7.91215 33.6108 7.75115 33.6876C7.34866 33.918 7.4694 33.8796 7.18766 33.9949C6.66442 34.4558 6.06068 34.8015 5.33619 34.9935C5.29594 34.9935 5.25569 34.9935 5.21545 35.0319C4.97395 35.1087 4.9337 34.9935 4.73245 34.9167C4.65196 34.8783 4.57146 34.7631 4.53121 34.6862C4.20921 34.1101 3.92747 33.6876 4.16896 32.881C4.37021 32.1512 5.13495 31.2677 5.69844 30.9605C5.81918 30.6532 6.14118 30.2691 5.89968 29.8466C5.89968 29.8082 5.85943 29.7313 5.85943 29.6929C5.81918 29.1168 5.73869 28.8479 5.49719 28.4638C5.57769 28.3486 5.69844 28.3102 5.69844 28.1181C5.61794 28.0413 5.57769 27.8877 5.53744 27.7724C5.53744 27.6956 5.49719 27.6188 5.33619 27.5804C5.25569 27.542 5.29594 27.3883 5.25569 27.3883C4.9337 27.3499 5.05445 27.6572 4.8532 27.734C4.7727 27.6956 4.81295 27.6572 4.7727 27.6572C4.57146 27.7724 4.24946 27.7724 4.16896 27.8493C3.68597 28.5406 3.32373 29.3472 2.63949 29.885C2.63949 30.0386 2.59924 30.0386 2.51874 30.1539C2.43825 30.1923 2.43825 30.2691 2.35775 30.2691C2.03575 30.73 1.71376 31.3062 1.51251 31.8439C1.43201 32.0744 1.47226 32.2664 1.39176 32.5353C1.35152 32.6505 1.23077 32.7657 1.19052 32.881C1.06977 33.3035 0.949022 33.918 0.989272 34.379C1.02952 34.9167 1.11002 35.5313 1.35152 36.0306C1.39176 36.1074 1.43201 36.1458 1.43201 36.1842C1.59301 36.3763 2.076 36.914 2.43825 37.0292C2.47849 37.0677 2.47849 37.1445 2.51874 37.1829C3.20298 37.6822 4.16896 37.9895 5.1752 38.0663C5.21545 38.0663 5.21545 38.1815 5.29594 38.1431C7.18766 37.8743 8.43539 37.0677 9.68312 36.1074C11.0918 35.0703 12.2591 33.9564 13.2653 32.6121C13.6678 32.0744 14.0703 31.575 14.3923 30.9989C14.7143 30.6916 14.9155 30.3075 15.0765 29.885C16.4852 28.0797 17.1695 25.6983 18.1757 23.5473C18.1757 23.5089 18.2562 23.3937 18.2562 23.3937C18.5782 22.2414 19.2222 21.3196 19.7454 20.3593C20.6712 18.8613 21.4359 17.2097 22.4019 15.8269ZM10.1259 34.5326C10.1259 34.6094 8.31464 35.9538 8.19389 35.9922C7.67065 36.3379 7.26816 36.4531 7.14741 36.4531C7.02666 36.4531 5.81918 36.2995 5.98018 36.1842C6.02043 36.1842 6.98641 36.261 7.50965 36.0306C8.51588 35.6465 9.60261 34.8015 10.0454 34.4174C10.1259 34.4558 10.1259 34.4942 10.1259 34.5326ZM10.4881 34.3021C10.3674 34.0717 10.9308 33.6876 11.0516 33.6876C10.9308 33.8412 10.6893 34.0333 10.4881 34.3021Z" fill="#E1635A"/>
<path fill-rule="evenodd" clip-rule="evenodd" d="M23.3276 12.2164C23.2874 12.2932 23.7301 12.37 23.8106 12.4468C23.8911 12.5237 23.8509 12.6389 23.9314 12.7157C24.4546 13.0998 25.1388 12.4468 25.5413 12.2932C25.9036 11.9859 26.2658 11.6018 26.5878 11.2177C26.6281 11.1793 26.7086 10.9873 26.7086 10.9488C26.7488 10.5647 26.3463 10.1806 26.3463 9.83496C26.3463 9.71973 26.4671 9.6045 26.5073 9.48927C26.7086 8.87471 26.7488 8.33696 26.3866 7.91445C25.4206 7.64558 24.3741 8.75948 23.7704 9.2204C23.6496 9.29722 23.4886 9.37404 23.4081 9.41245C23.2069 9.6045 23.2069 9.64291 22.9654 9.79655C22.8044 9.95019 22.3214 10.2191 22.3616 10.4879C22.4824 11.1409 22.5629 11.2561 22.8446 11.7555C23.0056 11.9859 23.1666 12.0627 23.3276 12.2164Z" fill="#E1635A"/>
</svg>
