<svg width="70" height="41" viewBox="0 0 70 41" fill="none" xmlns="http://www.w3.org/2000/svg">
<path fill-rule="evenodd" clip-rule="evenodd" d="M31.419 11.6789C31.1632 13.175 32.1437 14.3071 33.5931 14.2667C34.3605 14.2667 35.0426 13.9432 35.7247 13.7006C35.9805 14.4689 36.3215 14.9541 36.961 15.318C37.5578 15.6819 38.1546 15.8436 38.922 15.8841C41.0109 16.0054 42.5883 14.9541 43.8672 14.2262C43.9951 14.1454 44.0803 14.0645 44.123 13.9432C44.1656 13.8219 44.5919 13.6197 44.6772 13.5389C44.7624 13.4984 44.7624 13.3771 44.8051 13.2963C44.8477 13.2154 45.3593 12.8515 45.7856 12.6898C45.8708 12.6493 45.9561 12.1641 45.7003 12.0428C45.4445 11.9215 45.0609 12.245 44.7624 12.4067C44.4214 12.6089 44.0803 12.7302 43.8246 12.8515C43.2277 13.1345 42.6309 13.4984 41.9062 13.7006C40.1157 14.1858 38.5383 13.5389 38.0694 12.2854C38.581 11.8406 39.0499 11.3959 39.5188 10.9511C40.6272 9.94023 42.5883 7.23114 42.2046 6.70549C41.9488 6.42246 41.4372 6.62463 41.2241 6.70549C41.1388 6.74593 40.9683 6.70549 40.883 6.74593C40.4141 6.90767 39.9025 7.31201 39.4336 7.55461C38.922 7.83765 38.4531 8.08026 38.0268 8.44416C36.8757 9.41458 36.0231 10.8298 35.6394 12.245C34.531 12.4876 33.8063 11.4363 33.9768 10.385C35.4689 9.25285 36.7052 7.91852 38.0268 6.54376C38.8367 5.69464 39.4336 4.76466 40.0304 3.83467C40.1583 3.6325 40.1583 3.5112 40.2436 3.26859C40.3288 3.02599 40.542 2.74295 40.6272 2.37904C40.8404 1.81296 41.0962 0.842542 40.6699 0.4382C40.4141 0.236029 39.0499 0.721239 38.4531 1.08515C37.8562 1.44905 37.302 1.69166 36.7905 1.9747C36.492 2.17687 36.1936 2.54078 35.8952 2.82382C35.5968 3.10685 35.3836 3.5112 35.1278 3.83467C34.1047 5.24987 33.38 6.62463 32.57 8.20156C32.3142 8.7272 32.0158 9.45502 31.8026 10.0615C31.7174 10.3041 31.7174 10.3446 31.5895 10.4659C31.419 10.7085 30.6516 11.1533 30.3532 11.2746C30.2679 11.315 29.1595 11.6789 29.4153 12.3258C29.6711 12.5684 30.7795 11.8811 31.419 11.6789ZM40.0304 8.08023C40.073 8.08023 40.1156 8.08023 40.1156 8.12066C40.2435 8.4037 39.9878 8.76761 39.8172 9.01021C39.3483 9.65716 38.7515 10.5467 38.1546 10.8297C38.3678 9.65716 39.1778 8.76761 40.0304 8.08023ZM38.1546 2.2577C38.1973 2.17683 38.2825 2.13639 38.4957 2.17683C38.6662 2.21726 38.1546 3.59202 37.8562 4.19854C37.0889 5.65417 35.8526 6.82676 34.8294 7.95891C35.6394 6.05851 36.8331 3.87506 38.1546 2.2577Z" fill="white"/>
<path fill-rule="evenodd" clip-rule="evenodd" d="M68.9769 21.9896C68.38 21.9087 67.4422 21.6257 66.888 21.5852C66.6322 21.5448 65.2254 21.3426 64.4154 21.5044C64.2022 21.5448 63.9891 21.5448 63.7759 21.5044C64.8843 21.2213 66.1206 21.1 67.3995 21.4235C67.3569 21.4235 67.8685 21.4639 68.3374 21.5044C68.2948 21.5044 68.38 21.5044 68.38 21.5044C68.9342 21.6257 69.2753 21.5448 69.7869 21.4639C69.4032 21.1809 68.5506 21.3426 68.38 20.8574C68.5932 20.6553 69.1048 20.8574 69.4032 20.8574C69.2753 20.6957 69.0195 20.6957 68.8916 20.5744C69.0195 20.534 69.1474 20.6553 69.2327 20.5744C69.0621 20.4935 69.19 20.4531 69.3179 20.4127C68.9769 20.3318 68.4653 20.3318 68.5079 19.9679C68.849 20.0083 69.4885 20.0892 69.5311 20.0892C69.5737 20.0487 69.3179 19.9679 69.3179 19.887C68.849 19.8061 68.2095 19.5635 67.7406 19.3614C67.7832 19.2401 67.6553 19.1592 67.4848 19.1188C68.2095 19.1996 68.849 19.3614 69.5311 19.4018C69.4032 19.3614 69.5737 19.3209 69.5737 19.3209C69.5311 19.3209 69.4458 19.2805 69.4032 19.2805C69.4458 19.2805 69.4458 19.2805 69.4885 19.2805C69.4885 19.2805 69.4032 19.2805 69.3179 19.2401C69.2753 19.2401 69.2327 19.1996 69.19 19.1996C68.8916 19.1188 68.38 18.957 68.0816 18.7548C68.6358 18.7953 69.1474 18.8357 69.659 18.8762C68.5506 18.4314 66.2911 18.4718 65.0975 18.9166C64.3301 19.2401 62.9659 19.604 62.1133 20.0487C62.2838 19.604 62.5822 18.9975 62.497 18.5122C62.4117 18.6335 62.4117 18.8762 62.2838 18.9166C62.2412 18.8762 62.3691 18.674 62.1986 18.7953C62.2838 18.4314 62.5822 18.0675 62.5396 17.744C62.3691 17.6631 62.3691 17.5014 62.1133 17.461C62.0707 17.461 62.0707 17.5014 61.9854 17.5418C62.028 17.461 62.1559 17.4205 62.0707 17.3397C61.7723 17.2992 61.6017 17.1779 61.2607 17.2588C61.3033 17.4205 61.3886 17.5418 61.2607 17.6631C60.7491 17.6631 60.6638 17.2184 60.4507 17.0162C60.1949 16.9757 60.1949 17.1779 60.0244 17.2184C59.9818 17.2588 60.0244 17.5823 59.9391 17.7844C59.7686 18.2292 59.5981 18.7953 59.3423 19.2401C59.1718 19.5231 58.9586 19.9679 58.7881 20.2105C58.4044 20.7766 58.2765 21.4235 57.8928 21.9087C57.9355 22.1109 57.7223 22.1513 57.6371 22.3131C57.5944 22.3939 57.5944 22.5557 57.5092 22.677C57.3386 23.0004 57.0402 23.3239 56.8271 23.6878C56.145 24.6582 55.4202 25.6691 54.7808 26.5586C54.3545 27.1652 53.9282 27.7312 53.5019 28.2973C53.3313 28.5399 53.1182 28.7017 53.0329 28.9443C52.9903 29.0656 53.0755 29.2273 53.0329 29.3082C52.9903 29.5103 52.7771 29.6721 52.8198 29.9147C52.905 29.9551 53.0755 29.9551 53.1608 30.036C53.0329 30.3999 52.6919 30.5616 52.7771 30.966C52.9903 31.0468 53.1608 30.8851 53.2887 31.0064C53.4592 30.8447 53.6297 30.6021 53.8003 30.3999C53.9708 30.2382 54.1839 29.9147 54.4397 30.036C54.3118 30.3999 53.8855 30.5616 54.0561 30.966C54.2692 31.0873 54.3971 30.8851 54.5676 31.0064C55.1218 30.4403 55.5481 29.7934 56.1876 29.3486C56.8271 28.5803 57.4239 27.7717 57.9355 26.9226C58.3191 26.5182 58.6602 26.1139 59.0012 25.7095C59.3423 25.3052 59.5981 24.82 59.9391 24.3752C60.1096 24.173 60.4507 24.0517 60.7065 23.89C61.4738 23.3239 62.0707 22.8387 63.0085 22.4748C63.9891 22.1109 65.0122 21.8278 66.0353 21.8278C66.6322 21.9087 67.3143 21.8683 67.7832 22.1109C67.7832 22.1109 67.8258 22.1513 67.8685 22.1513C68.7211 22.2322 69.2753 22.3535 70 22.1918C69.8721 22.03 69.5311 22.0705 69.2753 22.03C68.9769 22.03 69.0621 21.9896 68.9769 21.9896ZM55.2071 27.4482C55.1218 26.7608 55.6334 26.3161 55.9318 25.8713C55.9744 25.8713 56.5286 25.1435 56.827 25.0222C56.2728 25.7904 55.676 26.5991 55.2071 27.4482ZM58.7454 22.4344C58.4044 23.0005 58.0207 23.5261 57.5091 24.0113C57.4665 23.6474 57.9781 23.2431 58.1486 22.8387C58.8733 22.2726 59.1718 21.3022 59.6833 20.534C59.726 20.4935 59.6407 20.2509 59.6407 20.2105C59.8538 19.9275 60.0244 19.5231 60.2375 19.2401C60.2802 19.2401 60.2802 19.2401 60.3228 19.2805C60.3228 19.4827 60.2802 19.7253 60.2375 19.7657C60.1949 19.8062 60.2375 20.3318 60.1096 20.5744C59.8112 21.2618 59.1718 21.9492 58.7454 22.4344Z" fill="white"/>
<path fill-rule="evenodd" clip-rule="evenodd" d="M53.9281 20.6552C54.397 19.5635 55.1218 18.7548 55.6333 17.744C55.7612 17.744 55.8039 17.6631 55.8891 17.6226C55.5481 17.1779 55.207 17.3396 54.6528 17.4609C54.4823 17.7035 54.2692 17.9057 54.0986 18.1483C54.2265 17.9057 54.3544 17.6631 54.4823 17.4205C54.2265 17.38 54.2265 17.5822 54.056 17.5418C53.8855 17.8248 53.5871 18.027 53.4592 18.3909C52.905 18.7144 52.6065 19.7252 52.095 20.1296C52.3508 19.7252 52.6492 19.2804 52.905 18.8357C53.246 18.31 53.715 17.744 53.8002 17.1374C53.6297 17.097 53.5871 16.8948 53.4165 16.814C52.7344 16.8544 52.6492 17.4609 52.2229 17.7844C51.7539 18.1079 51.5408 18.6739 51.1571 18.9974C51.1145 19.0783 51.1145 19.0378 51.1571 19.1591C50.6882 19.7657 50.3471 20.453 49.7076 20.8978C49.4945 21.4235 48.9829 21.6661 48.6845 22.1108C48.2156 22.4343 48.0024 22.96 47.6614 23.4047C47.4908 23.6473 47.4056 23.8091 47.2777 24.0517C47.1498 24.2539 46.894 24.3752 46.894 24.6582C46.3824 25.1434 45.9135 25.7095 45.3593 26.2351C45.0609 26.4777 44.8051 26.7608 44.5067 26.9629C43.9951 27.2864 43.4409 27.7312 42.9293 28.0142C42.0767 28.4186 40.9257 28.2973 40.6699 27.4481C40.5846 27.1247 40.6699 26.7608 40.7125 26.4373C40.883 25.0221 41.7783 23.9304 42.6309 23.1621C43.0146 22.5961 43.5262 22.1513 43.9525 21.5852C44.4214 20.9382 44.8904 20.17 45.3593 19.6039C45.3167 19.6039 45.3167 19.5635 45.3167 19.5231C45.7003 19.0783 46.0414 18.6335 46.3824 18.1483C46.2972 17.9866 46.4251 17.8653 46.4677 17.744C46.1693 17.7035 46.084 18.027 45.9135 18.2292C45.6577 18.5122 45.3593 18.7548 45.1035 18.9165C45.274 18.6739 45.4872 18.4718 45.6151 18.2696C45.5298 18.2696 45.5724 18.1079 45.4872 18.1079C44.9756 18.4718 44.464 19.0378 44.0377 19.4018C44.464 18.7952 44.933 18.2292 45.5724 17.7844C45.4872 17.744 45.5298 17.744 45.5298 17.6631C45.5724 17.5822 45.6577 17.5822 45.6577 17.4609C45.4019 17.4609 45.3593 17.7035 45.1461 17.7844C45.1888 17.6631 45.1035 17.6631 45.0609 17.5822C44.8051 17.5418 44.6772 17.8248 44.464 17.6631C44.4214 17.7035 44.3788 17.7844 44.2935 17.8248C44.2509 17.7844 44.2509 17.7035 44.1656 17.744C44.0377 17.9057 43.313 18.027 43.2277 18.1079C43.0146 18.2292 43.0146 18.5122 42.972 18.5931C42.972 18.5931 42.9293 18.7144 42.9293 18.8357C42.8014 18.8761 42.8441 18.957 42.7162 18.9165C42.3325 19.4826 41.5651 19.887 41.3094 20.5339C41.3094 20.5743 41.3094 20.5743 41.2241 20.6552C41.1815 20.6956 40.6273 21.5852 40.4567 21.9491C40.4567 21.9895 40.3288 22.1917 40.2436 22.313C40.2436 22.2726 40.2436 22.2321 40.2009 22.2321C39.9452 22.6365 39.6467 23.0408 39.391 23.4047C39.3483 23.4452 39.2631 23.526 39.2631 23.526C39.2631 23.5665 38.6236 24.3347 38.4104 24.7391C38.3678 24.8199 38.0268 25.3456 37.771 25.7499C37.771 25.7903 37.6857 25.9925 37.4726 26.316C37.3447 26.4373 36.8757 26.9225 36.7478 27.2055C36.7052 27.246 36.4494 27.6099 36.4068 27.7312C36.4068 27.7716 36.0231 28.4186 35.9379 28.4994C35.6821 28.6612 35.5542 28.8633 35.3837 29.0251C35.341 29.6316 34.4458 29.9551 35.0426 30.5211C35.7247 30.0359 36.2363 29.3486 36.9184 28.8633C36.961 28.8229 37.0889 28.7016 37.1315 28.6612C37.4726 29.2273 37.8562 29.7529 38.4104 30.1168C38.7941 30.0359 39.0073 30.3998 39.2631 30.602C39.391 30.6829 39.6041 30.7233 39.7746 30.8042C40.2436 31.0468 40.5846 31.2894 41.1388 31.4107C41.8636 31.532 42.3751 31.5724 42.972 31.3298C44.464 30.8042 46.0414 29.8742 46.9793 29.0251C47.1498 29.3486 47.4482 29.5912 47.7893 29.7529C47.8745 29.7933 47.9598 29.8338 48.045 29.8742C48.4713 30.1168 49.1961 30.319 49.8782 30.2381C49.8782 30.1168 49.9634 29.9955 50.0061 29.9955C50.0913 29.9551 49.5798 29.672 49.7076 29.7125C49.7076 29.7125 49.8782 29.7933 49.9208 29.7529C49.9208 29.7125 49.7503 29.5507 49.7929 29.5507C49.9634 29.5912 50.2618 29.7933 50.3045 29.7933C50.475 29.8338 50.6029 29.8338 50.6882 29.7933C51.1145 29.9146 51.4129 29.6316 51.7113 29.4294C51.3703 29.3081 51.1571 29.3486 50.7734 29.1868C50.6029 29.106 50.0913 28.8633 50.0913 28.7825C49.324 28.5803 48.8124 27.9334 48.9829 26.9225C49.8355 25.8712 50.816 24.9412 51.626 23.8899C52.0523 23.5665 52.3081 23.0813 52.5639 22.5961C53.246 22.1513 53.3313 21.1809 53.9281 20.6552ZM38.1547 27.5694C37.9841 27.1247 38.4105 26.4777 38.7941 26.1947C38.581 26.5586 38.4531 27.246 38.6662 27.6503C38.8368 28.0142 39.2631 28.4186 39.6041 28.6207C39.0925 28.4994 38.3252 28.0547 38.1547 27.5694ZM40.9256 23.1217C41.0109 22.9599 41.0962 22.8386 41.1814 22.6769C41.352 22.3938 41.4372 22.0299 41.6077 21.7469C41.8635 21.3426 42.1619 20.8169 42.4604 20.5743C42.7161 20.3721 43.0572 20.3317 43.2703 20.0891C43.313 20.0891 43.313 20.0891 43.3556 20.1295C43.2277 20.4126 42.9719 20.5743 42.844 20.8978C42.7161 20.8978 42.7161 21.0595 42.503 21.0191C41.693 21.9086 41.2241 22.9599 40.542 23.9303C40.4993 23.6069 40.7978 23.4047 40.9256 23.1217ZM46.9366 26.5182C48.3008 25.3456 49.5371 24.0517 50.6455 22.677C50.7307 22.6365 50.7307 22.7174 50.7734 22.7983C49.9634 23.6878 49.4092 24.7795 48.386 25.4669C47.9597 25.8713 47.7466 26.4373 46.9366 26.5182ZM48.6845 25.7095C48.5992 25.7499 48.4287 25.5882 48.4714 25.5477C49.5371 24.6178 50.475 23.5665 51.3276 22.4343C51.4129 22.3939 51.4129 22.4747 51.4129 22.5152C50.8161 23.243 49.1108 25.5882 48.6845 25.7095Z" fill="white"/>
<path fill-rule="evenodd" clip-rule="evenodd" d="M36.961 22.3535C37.0036 21.6257 36.8757 21.1405 36.7052 20.534C36.2789 18.9166 35.2558 17.9866 33.8063 17.2992C33.38 17.0162 33.039 16.8949 32.9111 16.8545C32.6553 16.7332 32.229 16.6119 31.8879 16.5714C31.5469 16.531 31.2485 16.7332 30.8648 16.6927C30.4385 16.6523 30.0974 16.2884 29.5006 16.4905C27.8806 17.0162 26.6017 17.9057 25.4933 18.9166C25.4507 18.957 25.4933 19.0783 25.408 19.1188C25.1096 19.4422 24.598 19.6444 24.2996 20.0083C24.2144 20.1296 24.2144 20.2509 24.1291 20.3722C24.0438 20.4935 23.8733 20.5744 23.7881 20.7361C23.5749 21.0596 23.4044 21.4235 23.1486 21.747C22.6796 22.2726 22.3386 22.8791 21.9976 23.4857C21.7844 23.8496 21.6139 24.2539 21.486 24.6582C21.2728 24.8604 20.9744 25.1839 20.8465 25.5074C20.7186 25.8308 20.7613 26.5991 20.7613 26.8417C20.7613 27.0034 20.676 27.1652 20.676 27.2865C20.676 27.3673 20.7186 27.4886 20.7613 27.6099C20.7613 27.8525 20.676 28.0547 20.7186 28.2165C20.8465 28.7825 21.1449 29.2273 21.3155 29.6721C21.4434 29.6721 21.3155 29.389 21.4434 29.389C21.6139 29.8338 21.8697 30.1977 22.2533 30.4403C22.5091 30.6021 22.8502 30.6829 23.106 30.8447C23.2339 30.9255 23.2765 31.0468 23.3617 31.1277C23.4896 31.2086 23.6602 31.2086 23.8307 31.3299C24.0012 31.4512 24.0865 31.6129 24.257 31.6938C24.4275 31.7747 25.1949 31.9768 25.9622 31.896C26.6443 31.8555 27.2838 31.4916 27.9233 31.5321C27.838 31.5321 27.6248 31.8555 27.7101 31.8555C28.9038 31.4512 30.0974 31.0468 31.1206 30.4808C30.9074 30.6829 30.4811 30.7638 30.3532 31.0468C31.8027 30.4808 33.0816 29.1869 34.19 27.8525C34.7016 27.246 35.2131 26.5587 35.6821 25.9117C36.2789 24.9817 36.8331 23.7687 36.961 22.3535ZM23.3617 22.7579C23.4043 22.9196 22.7648 23.8496 22.7222 24.0113C22.637 23.8092 23.1059 22.7983 23.3617 22.7579ZM26.0048 31.0065C26.2606 30.683 26.8148 30.966 27.1985 30.9256C26.9427 31.2086 26.3885 31.1682 26.0048 31.0065ZM26.8574 30.6425C27.7101 30.3595 28.4348 29.9956 29.2874 29.7125C29.1169 30.036 28.6906 30.1573 28.179 30.3999C27.7101 30.6021 27.4116 30.8851 26.8574 30.6425ZM28.3069 30.683C29.1169 30.2382 29.799 29.7126 30.6942 29.3487C30.6942 29.3082 30.7368 29.3082 30.7795 29.3082C30.1826 29.9956 29.1595 30.2786 28.3069 30.683ZM31.4616 26.5587C30.6942 27.8526 29.3727 28.6208 27.7527 29.106C26.2606 29.47 24.598 28.9039 23.7027 28.2165L23.6601 28.1761C23.2764 27.6909 22.6796 27.5695 22.7649 26.6396C22.8075 26.1139 23.1059 25.5883 23.3191 25.0626C23.447 24.82 23.4896 24.5774 23.6175 24.3753C23.8306 23.9709 24.0864 23.4857 24.4275 23.1622C25.0243 21.7875 25.7917 20.534 26.8574 19.5636C26.9427 19.5232 26.9427 19.4827 27.0706 19.4018C27.2837 19.2401 27.4116 19.1188 27.6674 18.9571C28.3069 18.5123 29.1169 18.2697 29.9269 18.0675C30.4384 18.0271 31.0779 18.1888 31.6321 18.2293C32.1863 18.2293 32.6552 18.5527 32.8684 18.7145C33.2521 19.2401 33.8063 19.6445 33.8915 20.4531C33.8915 20.6149 34.0194 20.7766 34.0621 20.9383C34.1047 21.2214 34.0194 21.5853 33.9768 21.8279C33.9768 21.9088 33.9342 22.1109 33.8915 22.2322C33.721 22.6366 33.4226 23.324 33.2521 23.607C33.1242 23.7687 32.9537 24.0922 32.8684 24.2944C32.7831 24.537 32.6979 24.7796 32.6126 24.9413C32.5274 25.1031 32.3142 25.3457 32.2716 25.3861C32.0584 25.5883 31.8879 25.9522 31.8026 26.0735C31.8026 26.1139 31.7174 26.2757 31.6747 26.3161C31.5895 26.3565 31.5468 26.4778 31.4616 26.5587ZM33.3373 26.2352C32.7831 27.0439 32.2289 27.8526 31.6747 28.6209C31.8879 27.8122 32.3995 26.7204 33.3373 26.2352ZM34.9147 24.5774C34.4031 25.5882 33.3373 27.1652 32.4847 28.0952C33.2521 26.9226 34.1473 25.3456 34.19 24.9817C34.2752 24.82 34.4884 24.4561 34.531 24.3348C34.6163 23.9709 34.8721 23.7687 34.9999 23.4452C34.9999 23.8091 35.0426 24.2539 34.9147 24.5774Z" fill="white"/>
<path fill-rule="evenodd" clip-rule="evenodd" d="M23.5323 16.814C23.5323 16.6523 23.5749 16.5714 23.6175 16.4501C23.5749 16.3693 23.4044 16.3288 23.447 16.1671C23.1912 16.2075 22.9781 16.4501 22.8075 16.531C22.7649 16.5714 22.7223 16.5714 22.7223 16.6119C22.6796 16.6523 22.5944 16.6523 22.5517 16.6927C22.2533 17.0162 22.0828 17.4205 21.827 17.8249C21.4007 18.4314 21.0597 18.9975 20.7186 19.6444C20.5481 19.9275 20.4628 20.2914 20.1644 20.4935C20.1218 20.2105 20.2923 20.0892 20.3776 19.887C20.676 19.2805 20.9744 18.5931 21.3581 17.9866C21.827 17.2184 22.4239 16.4501 22.8075 15.8032C22.8502 15.6819 22.7223 15.601 22.7223 15.4393C22.9781 15.0754 22.5517 14.7519 22.4239 14.5093C22.296 14.5497 22.2107 14.7519 22.0828 14.7115C22.2107 14.671 22.296 14.5093 22.2107 14.3475C22.1681 14.4688 22.0828 14.3475 22.1254 14.3475C21.9549 14.3071 21.8697 14.5902 21.6991 14.7115C21.6139 14.7519 21.5712 14.671 21.486 14.671C21.017 14.9945 20.8039 15.4393 20.4628 15.9245C20.2497 16.248 20.0365 16.531 19.8234 16.814C19.6102 17.0971 19.4823 17.5014 19.3118 17.8249C19.0986 18.1484 18.8855 18.4718 18.7576 18.7953C18.5018 19.4827 18.4592 20.2105 18.0755 20.8574C18.0755 20.8979 17.9476 21.3022 17.7771 21.464C17.905 20.9787 18.1608 20.2914 18.3739 19.604C18.1608 19.7253 18.1608 19.9275 18.0755 20.0892C17.7771 20.817 17.3934 21.5448 17.095 22.2726C16.8392 22.8792 16.4982 23.607 16.1571 24.1326C15.8161 25.0222 15.1766 25.5882 14.9208 26.5182C15.0061 26.5587 15.134 26.2352 15.3045 26.1139C15.3471 26.1948 15.2619 26.3969 15.2192 26.4778C15.0913 26.68 14.8355 27.1247 14.665 27.4886C14.5798 27.6504 14.4519 27.7717 14.4092 27.9334C14.2813 28.2165 14.2813 28.4995 14.1961 28.7421C14.1108 28.9847 13.9403 29.1869 13.7698 29.3891C13.4287 29.8338 13.2582 30.319 12.9172 30.7234C12.704 30.966 12.5761 31.249 12.5335 31.3299C12.4482 31.5725 12.2351 31.8555 12.1924 31.9364C12.1498 31.9768 11.7235 32.7451 11.2545 32.9068C11.2119 32.9473 11.1693 32.9877 11.084 33.0281C10.5298 33.8368 10.1888 34.5646 9.33616 35.0094C9.16563 35.0903 9.123 35.1711 9.03774 35.2116C8.65406 35.6968 8.22775 36.0203 7.50303 36.182C7.8867 36.0203 8.35565 35.6159 8.52617 35.4137C8.44091 35.4137 8.18512 35.535 8.0146 35.6159C7.58829 35.8585 7.71618 35.8181 7.41777 35.9394C6.86356 36.4246 6.2241 36.7885 5.45674 36.9907C5.41411 36.9907 5.37148 36.9907 5.32885 37.0311C5.07306 37.112 5.03043 36.9907 4.81728 36.9098C4.73202 36.8694 4.64675 36.7481 4.60412 36.6672C4.26308 36.0607 3.96466 35.6159 4.22044 34.7668C4.4336 33.9985 5.24359 33.0686 5.84042 32.7451C5.96831 32.4216 6.30936 32.0173 6.05358 31.5725C6.05358 31.5321 6.01094 31.4512 6.01094 31.4108C5.96831 30.8043 5.88305 30.5212 5.62727 30.1169C5.71253 29.9956 5.84042 29.9551 5.84042 29.753C5.75516 29.6721 5.71253 29.5104 5.6699 29.3891C5.6699 29.3082 5.62727 29.2273 5.45674 29.1869C5.37148 29.1465 5.41411 28.9847 5.37148 28.9847C5.03043 28.9443 5.15833 29.2678 4.94517 29.3486C4.85991 29.3082 4.90254 29.2678 4.85991 29.2678C4.64675 29.3891 4.30571 29.3891 4.22044 29.4699C3.70887 30.1977 3.32519 31.0469 2.60047 31.6129C2.60047 31.7747 2.55784 31.7747 2.47258 31.896C2.38731 31.9364 2.38731 32.0173 2.30205 32.0173C1.961 32.5025 1.61996 33.109 1.4068 33.6751C1.32154 33.9177 1.36417 34.1199 1.27891 34.4029C1.23628 34.5242 1.10839 34.6455 1.06576 34.7668C0.937862 35.2116 0.80997 35.8585 0.8526 36.3437C0.895231 36.9098 0.980493 37.5568 1.23628 38.0824C1.27891 38.1633 1.32154 38.2037 1.32154 38.2441C1.49206 38.4463 2.00364 39.0124 2.38731 39.1337C2.42995 39.1741 2.42995 39.255 2.47258 39.2954C3.1973 39.8211 4.22044 40.1445 5.28622 40.2254C5.32885 40.2254 5.32885 40.3467 5.41411 40.3063C7.41776 40.0232 8.73932 39.1741 10.0609 38.1633C11.553 37.0715 12.7893 35.899 13.855 34.4838C14.2813 33.9177 14.7077 33.392 15.0487 32.7855C15.3898 32.4621 15.6029 32.0577 15.7734 31.6129C17.2655 29.7125 17.9902 27.2056 19.056 24.9413C19.056 24.9009 19.1413 24.7796 19.1413 24.7796C19.4823 23.5665 20.1644 22.5961 20.7186 21.5853C21.6991 20.0083 22.5091 18.2697 23.5323 16.814ZM10.5298 36.5055C10.5298 36.5863 8.61144 38.0015 8.48355 38.042C7.92935 38.4059 7.50304 38.5272 7.37515 38.5272C7.24725 38.5272 5.96833 38.3654 6.13885 38.2441C6.18148 38.2441 7.20462 38.325 7.75882 38.0824C8.8246 37.6781 9.97563 36.7885 10.4446 36.3842C10.5298 36.4246 10.5298 36.465 10.5298 36.5055ZM10.9135 36.2629C10.7856 36.0203 11.3825 35.6159 11.5104 35.6159C11.3825 35.7777 11.1267 35.9798 10.9135 36.2629Z" fill="white"/>
<path fill-rule="evenodd" clip-rule="evenodd" d="M24.5127 13.0132C24.4701 13.094 24.9391 13.1749 25.0243 13.2558C25.1096 13.3366 25.0669 13.4579 25.1522 13.5388C25.7064 13.9431 26.4311 13.2558 26.8574 13.094C27.2411 12.7706 27.6248 12.3662 27.9659 11.9619C28.0085 11.9214 28.0937 11.7193 28.0937 11.6788C28.1364 11.2745 27.7101 10.8701 27.7101 10.5062C27.7101 10.3849 27.838 10.2636 27.8806 10.1423C28.0937 9.49539 28.1364 8.92931 27.7527 8.48453C26.7296 8.20149 25.6212 9.37409 24.9817 9.8593C24.8538 9.94016 24.6833 10.021 24.598 10.0615C24.3849 10.2636 24.3849 10.3041 24.1291 10.4658C23.9585 10.6275 23.447 10.9106 23.4896 11.1936C23.6175 11.881 23.7028 12.0023 24.0012 12.5279C24.1717 12.7706 24.3422 12.8514 24.5127 13.0132Z" fill="white"/>
</svg>
